<?xml version="1.0" encoding="UTF-8" standalone="no"?>
<!-- Created with Inkscape (http://www.inkscape.org/) -->

<svg
   width="1024.0px"
   height="1024.0px"
   viewBox="0 0 1024.0 1024.0"
   version="1.1"
   id="SVGRoot"
   sodipodi:docname="NeptIDE.svg"
   inkscape:version="1.1.2 (0a00cf5339, 2022-02-04, custom)"
   inkscape:export-filename="/home/markus/code_150x150.png"
   inkscape:export-xdpi="14.062501"
   inkscape:export-ydpi="14.062501"
   xmlns:inkscape="http://www.inkscape.org/namespaces/inkscape"
   xmlns:sodipodi="http://sodipodi.sourceforge.net/DTD/sodipodi-0.dtd"
   xmlns:xlink="http://www.w3.org/1999/xlink"
   xmlns="http://www.w3.org/2000/svg"
   xmlns:svg="http://www.w3.org/2000/svg">
  <sodipodi:namedview
     id="namedview829"
     pagecolor="#505050"
     bordercolor="#eeeeee"
     borderopacity="1"
     inkscape:pageshadow="0"
     inkscape:pageopacity="0"
     inkscape:pagecheckerboard="0"
     inkscape:document-units="px"
     showgrid="true"
     inkscape:zoom="0.78741022"
     inkscape:cx="668.64766"
     inkscape:cy="491.4846"
     inkscape:window-width="3440"
     inkscape:window-height="1362"
     inkscape:window-x="0"
     inkscape:window-y="0"
     inkscape:window-maximized="1"
     inkscape:current-layer="layer1"
     inkscape:snap-smooth-nodes="false">
    <inkscape:grid
       type="xygrid"
       id="grid892" />
  </sodipodi:namedview>
  <defs
     id="defs824">
    <rect
       x="140"
       y="140"
       width="300"
       height="300"
       id="rect16421" />
    <linearGradient
       inkscape:collect="always"
       id="linearGradient10581">
      <stop
         style="stop-color:#3895fe;stop-opacity:1"
         offset="0"
         id="stop10577" />
      <stop
         style="stop-color:#0000ff;stop-opacity:0;"
         offset="1"
         id="stop10579" />
    </linearGradient>
    <linearGradient
       inkscape:collect="always"
       id="linearGradient9123">
      <stop
         style="stop-color:#a900fc;stop-opacity:0.69706625"
         offset="0"
         id="stop9119" />
      <stop
         style="stop-color:#008bfc;stop-opacity:0"
         offset="1"
         id="stop9121" />
    </linearGradient>
    <linearGradient
       inkscape:collect="always"
       id="linearGradient8621">
      <stop
         style="stop-color:#5b00fc;stop-opacity:0.50441974"
         offset="0"
         id="stop8617" />
      <stop
         style="stop-color:#fc00ab;stop-opacity:0"
         offset="1"
         id="stop8619" />
    </linearGradient>
    <marker
       style="overflow:visible"
       id="marker5132"
       refX="0.0"
       refY="0.0"
       orient="auto"
       inkscape:stockid="DotS"
       inkscape:isstock="true">
      <path
         transform="scale(0.2) translate(7.4, 1)"
         style="fill-rule:evenodd;fill:context-stroke;stroke:context-stroke;stroke-width:1.0pt"
         d="M -2.5,-1.0 C -2.5,1.7600000 -4.7400000,4.0 -7.5,4.0 C -10.260000,4.0 -12.5,1.7600000 -12.5,-1.0 C -12.5,-3.7600000 -10.260000,-6.0 -7.5,-6.0 C -4.7400000,-6.0 -2.5,-3.7600000 -2.5,-1.0 z "
         id="path5130" />
    </marker>
    <marker
       style="overflow:visible"
       id="marker5122"
       refX="0.0"
       refY="0.0"
       orient="auto"
       inkscape:stockid="DotM"
       inkscape:isstock="true">
      <path
         transform="scale(0.4) translate(7.4, 1)"
         style="fill-rule:evenodd;fill:context-stroke;stroke:context-stroke;stroke-width:1.0pt"
         d="M -2.5,-1.0 C -2.5,1.7600000 -4.7400000,4.0 -7.5,4.0 C -10.260000,4.0 -12.5,1.7600000 -12.5,-1.0 C -12.5,-3.7600000 -10.260000,-6.0 -7.5,-6.0 C -4.7400000,-6.0 -2.5,-3.7600000 -2.5,-1.0 z "
         id="path5120" />
    </marker>
    <marker
       style="overflow:visible"
       id="DotM"
       refX="0.0"
       refY="0.0"
       orient="auto"
       inkscape:stockid="DotM"
       inkscape:isstock="true">
      <path
         transform="scale(0.4) translate(7.4, 1)"
         style="fill-rule:evenodd;fill:context-stroke;stroke:context-stroke;stroke-width:1.0pt"
         d="M -2.5,-1.0 C -2.5,1.7600000 -4.7400000,4.0 -7.5,4.0 C -10.260000,4.0 -12.5,1.7600000 -12.5,-1.0 C -12.5,-3.7600000 -10.260000,-6.0 -7.5,-6.0 C -4.7400000,-6.0 -2.5,-3.7600000 -2.5,-1.0 z "
         id="path1175" />
    </marker>
    <marker
       style="overflow:visible"
       id="DotS"
       refX="0.0"
       refY="0.0"
       orient="auto"
       inkscape:stockid="DotS"
       inkscape:isstock="true">
      <path
         transform="scale(0.2) translate(7.4, 1)"
         style="fill-rule:evenodd;fill:context-stroke;stroke:context-stroke;stroke-width:1.0pt"
         d="M -2.5,-1.0 C -2.5,1.7600000 -4.7400000,4.0 -7.5,4.0 C -10.260000,4.0 -12.5,1.7600000 -12.5,-1.0 C -12.5,-3.7600000 -10.260000,-6.0 -7.5,-6.0 C -4.7400000,-6.0 -2.5,-3.7600000 -2.5,-1.0 z "
         id="path1178" />
    </marker>
    <marker
       style="overflow:visible;"
       id="Arrow1Mend"
       refX="0.0"
       refY="0.0"
       orient="auto"
       inkscape:stockid="Arrow1Mend"
       inkscape:isstock="true">
      <path
         transform="scale(0.4) rotate(180) translate(10,0)"
         style="fill-rule:evenodd;fill:context-stroke;stroke:context-stroke;stroke-width:1.0pt;"
         d="M 0.0,0.0 L 5.0,-5.0 L -12.5,0.0 L 5.0,5.0 L 0.0,0.0 z "
         id="path1120" />
    </marker>
    <marker
       style="overflow:visible;"
       id="Arrow1Lend"
       refX="0.0"
       refY="0.0"
       orient="auto"
       inkscape:stockid="Arrow1Lend"
       inkscape:isstock="true">
      <path
         transform="scale(0.8) rotate(180) translate(12.5,0)"
         style="fill-rule:evenodd;fill:context-stroke;stroke:context-stroke;stroke-width:1.0pt;"
         d="M 0.0,0.0 L 5.0,-5.0 L -12.5,0.0 L 5.0,5.0 L 0.0,0.0 z "
         id="path1114" />
    </marker>
    <marker
       style="overflow:visible;"
       id="Arrow2Send"
       refX="0.0"
       refY="0.0"
       orient="auto"
       inkscape:stockid="Arrow2Send"
       inkscape:isstock="true">
      <path
         transform="scale(0.3) rotate(180) translate(-2.3,0)"
         d="M 8.7185878,4.0337352 L -2.2072895,0.016013256 L 8.7185884,-4.0017078 C 6.9730900,-1.6296469 6.9831476,1.6157441 8.7185878,4.0337352 z "
         style="stroke:context-stroke;fill-rule:evenodd;fill:context-stroke;stroke-width:0.62500000;stroke-linejoin:round;"
         id="path1144" />
    </marker>
    <linearGradient
       inkscape:collect="always"
       id="linearGradient3926">
      <stop
         style="stop-color:#271a72;stop-opacity:1;"
         offset="0"
         id="stop3922" />
      <stop
         style="stop-color:#271a72;stop-opacity:0;"
         offset="1"
         id="stop3924" />
    </linearGradient>
    <marker
       style="overflow:visible"
       id="TriangleInS"
       refX="0.0"
       refY="0.0"
       orient="auto"
       inkscape:stockid="TriangleInS"
       inkscape:isstock="true">
      <path
         transform="scale(-0.2)"
         style="fill-rule:evenodd;fill:context-stroke;stroke:context-stroke;stroke-width:1.0pt"
         d="M 5.77,0.0 L -2.88,5.0 L -2.88,-5.0 L 5.77,0.0 z "
         id="path1250" />
    </marker>
    <marker
       style="overflow:visible"
       id="Arrow1Lstart"
       refX="0.0"
       refY="0.0"
       orient="auto"
       inkscape:stockid="Arrow1Lstart"
       inkscape:isstock="true">
      <path
         transform="scale(0.8) translate(12.5,0)"
         style="fill-rule:evenodd;fill:context-stroke;stroke:context-stroke;stroke-width:1.0pt"
         d="M 0.0,0.0 L 5.0,-5.0 L -12.5,0.0 L 5.0,5.0 L 0.0,0.0 z "
         id="path1111" />
    </marker>
    <inkscape:path-effect
       effect="spiro"
       id="path-effect993"
       is_visible="true"
       lpeversion="1" />
    <radialGradient
       inkscape:collect="always"
       xlink:href="#linearGradient10581"
       id="radialGradient13170"
       cx="49.592911"
       cy="108.07381"
       fx="49.592915"
       fy="108.07381"
       r="32.052673"
       gradientUnits="userSpaceOnUse"
       gradientTransform="matrix(-0.94200713,1.3296418,-1.182063,-0.83745246,224.05983,132.63968)" />
    <linearGradient
       inkscape:collect="always"
       id="linearGradient13166">
      <stop
         style="stop-color:#0056ff;stop-opacity:1"
         offset="0"
         id="stop13162" />
      <stop
         style="stop-color:#0000ff;stop-opacity:0;"
         offset="1"
         id="stop13164" />
    </linearGradient>
    <linearGradient
       inkscape:collect="always"
       xlink:href="#linearGradient3926"
       id="linearGradient3928"
       x1="760"
       y1="440"
       x2="160"
       y2="820"
       gradientUnits="userSpaceOnUse"
       gradientTransform="translate(348.7818,-124.97905)" />
    <linearGradient
       inkscape:collect="always"
       xlink:href="#linearGradient13166"
       id="linearGradient5310"
       gradientUnits="userSpaceOnUse"
       x1="760"
       y1="440"
       x2="160"
       y2="820"
       gradientTransform="matrix(1.001978,0,0,1.001978,347.3407,-128.05514)" />
    <linearGradient
       inkscape:collect="always"
       xlink:href="#linearGradient3926"
       id="linearGradient5820"
       gradientUnits="userSpaceOnUse"
       x1="760"
       y1="440"
       x2="160"
       y2="820"
       gradientTransform="matrix(1.001978,0,0,1.001978,347.3407,-128.05514)" />
    <linearGradient
       inkscape:collect="always"
       xlink:href="#linearGradient8621"
       id="linearGradient8623"
       x1="688.75433"
       y1="187.66324"
       x2="449.45956"
       y2="752.58624"
       gradientUnits="userSpaceOnUse" />
    <linearGradient
       inkscape:collect="always"
       xlink:href="#linearGradient9123"
       id="linearGradient9125"
       x1="258.23096"
       y1="147.36612"
       x2="879.28043"
       y2="435.73087"
       gradientUnits="userSpaceOnUse" />
    <linearGradient
       inkscape:collect="always"
       xlink:href="#linearGradient10581"
       id="linearGradient10481"
       x1="49.592903"
       y1="108.07381"
       x2="19.399059"
       y2="150.69238"
       gradientUnits="userSpaceOnUse" />
  </defs>
  <g
     inkscape:label="Layer 1"
     inkscape:groupmode="layer"
     id="layer1">
    <rect
       style="fill:url(#linearGradient9125);fill-opacity:1;stroke:none;stroke-width:104.264;stroke-linecap:round;stroke-miterlimit:4;stroke-dasharray:none;stroke-dashoffset:0;stroke-opacity:1"
       id="rect5917"
       width="703.78381"
       height="703.78381"
       x="175.49661"
       y="83.838959"
       transform="rotate(12.56134)" />
    <rect
       style="fill:url(#linearGradient8623);fill-opacity:1;stroke:none;stroke-width:82.7006;stroke-linecap:round;stroke-miterlimit:4;stroke-dasharray:none;stroke-dashoffset:0;stroke-opacity:1;opacity:1"
       id="rect5917-3"
       width="558.23059"
       height="558.23059"
       x="350.14658"
       y="225.89369"
       transform="rotate(-3.9313375)" />
    <g
       id="g5833"
       transform="matrix(1.1077924,0,0,1.1077924,-8.2818183,87.397291)">
      <g
         id="g11820"
         transform="matrix(11.278213,0,0,11.278213,54.593768,-1064.7313)"
         style="stroke-width:4.12672;stroke-miterlimit:8;stroke-dasharray:none">
        <g
           id="g10816"
           transform="matrix(0.78682764,0,0,0.78682764,14.358588,35.590932)">
          <circle
             style="fill:url(#linearGradient10481);fill-opacity:1;stroke:url(#radialGradient13170);stroke-width:4.12672;stroke-linecap:round;stroke-miterlimit:8;stroke-dasharray:none;stroke-opacity:1"
             id="path846"
             cx="34.563587"
             cy="134.16536"
             r="30.729757" />
          <circle
             style="fill:none;stroke:#0056ff;stroke-width:4.12672;stroke-linecap:round;stroke-miterlimit:8;stroke-dasharray:none;stroke-opacity:1"
             id="path1274"
             cx="46.739365"
             cy="124.25961"
             r="7.1294808" />
        </g>
      </g>
      <g
         id="path991"
         transform="translate(14.46289,-60.38477)">
        <g
           id="g5241">
          <g
             id="path5243">
            <g
               id="g11238"
               transform="matrix(0.68925886,0,0,0.68925886,34.181321,270.34499)">
              <g
                 id="g11133">
                <path
                   style="color:#000000;fill:url(#linearGradient3928);stroke-linecap:round;-inkscape-stroke:none"
                   d="m 1174.3189,235.40572 a 40,40 0 0 0 -40.0176,19.33984 C 1080.2928,346.5906 1008.5187,428.15039 924.28571,493.3979 800.91904,588.9587 649.94997,649.34672 494.71149,665.22798 a 40,40 0 0 0 -35.72266,43.86328 40,40 0 0 0 43.86328,35.72266 C 673.24042,727.3828 837.8718,661.53064 973.27789,556.644 1065.6202,485.11487 1144.0542,395.98362 1203.2623,295.29634 a 40,40 0 0 0 -14.2051,-54.75586 40,40 0 0 0 -14.7383,-5.13476 z"
                   id="path5251" />
                <path
                   style="color:#000000;fill:url(#linearGradient5820);fill-rule:evenodd;stroke-width:16.0317pt;-inkscape-stroke:none"
                   d="m 1208.7818,205.02095 c 38.1416,22.42875 50.894,71.58727 28.4653,109.72883 -22.4288,38.14157 -71.5873,50.89401 -109.7289,28.46527 -38.1415,-22.42874 -50.894,-71.58726 -28.4652,-109.72883 22.4287,-38.14157 71.5872,-50.89401 109.7288,-28.46527 z"
                   id="path5247" />
              </g>
              <path
                 style="color:#000000;fill:url(#linearGradient5310);fill-opacity:1;fill-rule:evenodd;stroke-width:1.00198;-inkscape-stroke:none"
                 d="m 1171.3541,183.36628 c -32.222,-1.06355 -64.0795,15.05219 -81.5144,44.70152 -25.36,43.12632 -10.8654,99.00077 32.2609,124.36074 43.1263,25.35995 98.9988,10.86536 124.3588,-32.26096 25.36,-43.1263 10.8653,-98.9988 -32.261,-124.35877 -13.4769,-7.92499 -28.1979,-11.95909 -42.8443,-12.44253 z m -0.8122,21.27051 c 11.1917,0.38953 22.4612,3.5041 32.8226,9.59707 33.1568,19.49748 44.1673,61.94113 24.6698,95.09789 -19.4974,33.15676 -61.9411,44.16726 -95.0978,24.66978 -33.1568,-19.49748 -44.1673,-61.94112 -24.6698,-95.09789 13.4045,-22.79526 37.6535,-35.12384 62.2752,-34.26685 z"
                 id="path5249" />
            </g>
          </g>
        </g>
      </g>
    </g>
    <g
       id="g25398"
       transform="matrix(1.1974795,0,0,1.1974795,-51.11404,-54.790154)">
      <rect
         style="opacity:1;fill:#000000;fill-opacity:1;stroke:none;stroke-width:80;stroke-linecap:round;stroke-miterlimit:4;stroke-dasharray:none;stroke-dashoffset:0;stroke-opacity:1"
         id="rect11599"
         width="380"
         height="380"
         x="100"
         y="100"
         ry="100" />
      <g
         aria-label="NPT"
         transform="matrix(1.126305,0,0,1.126305,-44.765478,11.628941)"
         id="text16419"
         style="font-size:146.667px;line-height:1.25;font-family:'DejaVu Sans';-inkscape-font-specification:'DejaVu Sans';text-align:center;text-anchor:middle;white-space:pre;shape-inside:url(#rect16421);fill:#ffffff">
        <path
           d="m 160.52053,162.84511 h 19.47921 l 47.40897,89.44682 V 162.84511 H 241.4452 V 269.76593 H 221.96599 L 174.55702,180.3191 v 89.44683 h -14.03649 z"
           id="path25213" />
        <path
           d="m 284.70051,174.73315 v 40.17588 h 18.19015 q 10.09768,0 15.61201,-5.22788 5.51434,-5.22788 5.51434,-14.89587 0,-9.59637 -5.51434,-14.82425 -5.51433,-5.22788 -15.61201,-5.22788 z m -14.46618,-11.88804 h 32.65633 q 17.9753,0 27.14199,8.16408 9.2383,8.09246 9.2383,23.77609 0,15.82686 -9.2383,23.91933 -9.16669,8.09247 -27.14199,8.09247 h -18.19015 v 42.96885 h -14.46618 z"
           id="path25215" />
        <path
           d="m 343.8543,162.84511 h 90.44943 v 12.1745 h -37.95582 v 94.74632 H 381.81012 V 175.01961 H 343.8543 Z"
           id="path25217" />
      </g>
      <rect
         style="opacity:1;fill:#ffffff;fill-opacity:1;stroke:none;stroke-width:80;stroke-linecap:round;stroke-miterlimit:4;stroke-dasharray:none;stroke-dashoffset:0;stroke-opacity:1"
         id="rect25063"
         width="310"
         height="45"
         x="135"
         y="337"
         ry="22.5" />
    </g>
  </g>
</svg>
