<?xml version="1.0" encoding="UTF-8" standalone="no"?>
<!-- Created with Inkscape (http://www.inkscape.org/) -->

<svg
   width="233.27766mm"
   height="63.572327mm"
   viewBox="0 0 233.27766 63.572327"
   version="1.1"
   id="svg5"
   inkscape:version="1.1.2 (0a00cf5339, 2022-02-04, custom)"
   sodipodi:docname="LogoWhite.svg"
   xmlns:inkscape="http://www.inkscape.org/namespaces/inkscape"
   xmlns:sodipodi="http://sodipodi.sourceforge.net/DTD/sodipodi-0.dtd"
   xmlns:xlink="http://www.w3.org/1999/xlink"
   xmlns="http://www.w3.org/2000/svg"
   xmlns:svg="http://www.w3.org/2000/svg">
  <sodipodi:namedview
     id="namedview7"
     pagecolor="#505050"
     bordercolor="#eeeeee"
     borderopacity="1"
     inkscape:pageshadow="0"
     inkscape:pageopacity="0"
     inkscape:pagecheckerboard="0"
     inkscape:document-units="mm"
     showgrid="false"
     inkscape:zoom="1.0654602"
     inkscape:cx="439.24682"
     inkscape:cy="247.78025"
     inkscape:window-width="1887"
     inkscape:window-height="1278"
     inkscape:window-x="25"
     inkscape:window-y="38"
     inkscape:window-maximized="0"
     inkscape:current-layer="layer1" />
  <defs
     id="defs2">
    <rect
       x="245.3463"
       y="41.8148"
       width="770.17725"
       height="183.89644"
       id="rect6538" />
    <linearGradient
       inkscape:collect="always"
       id="linearGradient13166">
      <stop
         style="stop-color:#0056ff;stop-opacity:1"
         offset="0"
         id="stop13162" />
      <stop
         style="stop-color:#0000ff;stop-opacity:0;"
         offset="1"
         id="stop13164" />
    </linearGradient>
    <rect
       x="316.38599"
       y="413.39331"
       width="463.01379"
       height="164.53101"
       id="rect4634" />
    <radialGradient
       inkscape:collect="always"
       xlink:href="#linearGradient13166"
       id="radialGradient13170"
       cx="49.592911"
       cy="108.07381"
       fx="49.592911"
       fy="108.07381"
       r="32.052673"
       gradientUnits="userSpaceOnUse"
       gradientTransform="matrix(-0.94200702,1.3296416,-1.182063,-0.83745246,224.05982,132.63969)" />
  </defs>
  <g
     inkscape:groupmode="layer"
     id="layer2"
     inkscape:label="Layer 2"
     transform="translate(-18.059019,-102.48934)" />
  <g
     inkscape:label="Layer 1"
     inkscape:groupmode="layer"
     id="layer1"
     transform="translate(-18.059019,-102.48934)">
    <g
       id="g11820"
       transform="matrix(0.96929373,0,0,0.96929373,16.342914,4.2298587)"
       style="stroke-width:4.12672;stroke-miterlimit:8;stroke-dasharray:none">
      <circle
         style="fill:none;fill-opacity:1;stroke:url(#radialGradient13170);stroke-width:4.12672;stroke-linecap:round;stroke-miterlimit:8;stroke-dasharray:none;stroke-opacity:1"
         id="path846"
         cx="34.563587"
         cy="134.16536"
         r="30.729757" />
      <circle
         style="fill:none;stroke:#0056ff;stroke-width:4.12672;stroke-linecap:round;stroke-miterlimit:8;stroke-dasharray:none;stroke-opacity:1"
         id="path1274"
         cx="46.739365"
         cy="124.25961"
         r="7.1294808" />
    </g>
    <g
       aria-label="Neptyne"
       transform="matrix(0.26458333,0,0,0.26458333,22.572882,94.598356)"
       id="text6536"
       style="font-size:162.667px;line-height:1.25;font-family:Fredoka;-inkscape-font-specification:Fredoka;white-space:pre;shape-inside:url(#rect6538);fill:#ffffff">
      <path
         d="m 264.54041,194.55205 q -7.15735,0 -10.24802,-2.11467 -3.09067,-2.27734 -3.74134,-5.69335 -0.65067,-3.416 -0.65067,-7.15734 V 95.16251 q 0,-3.578674 0.65067,-6.832015 0.65067,-3.25334 3.74134,-5.368011 3.25334,-2.114671 10.57335,-2.114671 7.15735,0 9.76002,1.789337 2.60268,1.789337 4.71735,4.554676 l 40.66675,54.656114 V 95.16251 q 0,-3.578674 0.65067,-6.832015 0.81333,-3.25334 3.90401,-5.368011 3.09067,-2.114671 10.41068,-2.114671 7.48269,0 10.41069,2.277338 3.09068,2.114671 3.74134,5.530678 0.65067,3.416008 0.65067,7.157349 v 83.936172 q 0,3.57868 -0.65067,6.99468 -0.65066,3.41601 -3.74134,5.69335 -3.09067,2.11467 -10.57335,2.11467 -5.53068,0 -8.45869,-0.976 -2.76534,-0.81334 -4.71734,-3.41601 l -42.13076,-55.63211 v 45.22142 q 0,3.57868 -0.65066,6.99468 -0.65067,3.41601 -3.74134,5.69335 -3.09068,2.11467 -10.57336,2.11467 z"
         style="font-weight:bold;-inkscape-font-specification:'Fredoka Bold'"
         id="path834" />
      <path
         d="m 401.18071,196.34139 q -12.20003,0 -20.65871,-3.90401 -8.45869,-4.06667 -13.66403,-10.41069 -5.20534,-6.50668 -7.64535,-13.98936 -2.44,-7.48268 -2.44,-14.47736 0,-12.8507 5.69334,-22.61072 5.69335,-9.76002 15.7787,-15.2907 10.08536,-5.53068 23.09872,-5.53068 10.08535,0 17.2427,3.25334 7.15735,3.25334 11.54936,8.29602 4.55467,5.04268 6.66934,10.73602 2.11467,5.69335 2.11467,10.57336 0,9.27202 -4.55467,14.15203 -4.55468,4.88001 -11.71203,4.88001 h -34.64807 q 0.65067,2.60267 2.60267,4.55468 2.11467,1.78933 5.20535,2.928 3.09067,0.976 6.66935,0.976 3.57867,0 6.34401,-0.32533 2.76534,-0.488 4.71734,-1.13867 2.11467,-0.65067 3.74134,-1.30133 1.78934,-0.65067 3.09068,-0.97601 1.464,-0.488 2.76534,-0.488 2.928,0 5.36801,1.95201 2.44,1.952 4.39201,5.85601 1.13866,2.11467 1.62667,4.06667 0.488,1.78934 0.488,3.41601 0,4.88001 -4.06668,8.13335 -3.90401,3.25334 -11.38669,4.88001 -7.48268,1.78934 -18.38137,1.78934 z m -13.17603,-49.61344 h 18.21871 q 2.27733,0 3.25334,-0.976 1.13867,-0.976 1.13867,-2.92801 0,-2.11467 -1.30134,-3.57867 -1.13867,-1.464 -3.25334,-2.11467 -2.11467,-0.81334 -5.04268,-0.81334 -3.90401,0 -6.83201,1.62667 -2.92801,1.46401 -4.55468,3.90401 -1.464,2.27734 -1.62667,4.88001 z"
         style="font-weight:bold;-inkscape-font-specification:'Fredoka Bold'"
         id="path836" />
      <path
         d="m 490.15954,192.60005 q -7.97069,0 -13.8267,-3.25334 -5.85601,-3.25334 -9.59735,-8.78402 -3.74134,-5.69335 -5.53068,-12.85069 -1.78934,-7.15735 -1.62667,-15.12804 0.16267,-7.80801 1.952,-15.12803 1.95201,-7.32001 5.69335,-13.01336 3.74134,-5.69334 9.43469,-8.94668 5.69334,-3.41601 13.50136,-3.41601 7.15735,0 13.82669,3.41601 6.83202,3.416 12.20003,9.27202 5.36801,5.69334 8.45868,13.01336 3.09068,7.32001 3.09068,15.12803 0,8.13335 -3.09068,15.45336 -3.09067,7.15735 -8.45868,12.68803 -5.20534,5.36801 -12.03736,8.45868 -6.66935,3.09068 -13.98936,3.09068 z m -30.0934,36.43741 q -7.15735,0 -10.24802,-2.11467 -3.09067,-2.11468 -3.74134,-5.36802 -0.488,-3.25334 -0.488,-6.83201 v -88.32818 q 0,-3.57868 0.488,-6.83202 0.65067,-3.25334 3.57867,-5.36801 3.09068,-2.27734 10.24802,-2.27734 5.69335,0 9.43469,1.62667 3.74134,1.464 5.36801,4.71734 v 96.29887 q 0.32534,3.57868 -0.488,6.83202 -0.65067,3.416 -3.74134,5.53068 -3.09067,2.11467 -10.41069,2.11467 z m 26.18939,-64.0908 q 3.25334,0 5.85601,-1.62667 2.76534,-1.62667 4.39201,-4.22935 1.62667,-2.76534 1.62667,-5.85601 0,-3.25334 -1.62667,-5.85601 -1.464,-2.76534 -4.22934,-4.22934 -2.60267,-1.62667 -5.85601,-1.62667 -3.25334,0 -6.01868,1.62667 -2.60267,1.62667 -4.22934,4.22934 -1.46401,2.60267 -1.46401,5.85601 0,3.09067 1.62667,5.85601 1.62667,2.60268 4.22934,4.22935 2.60268,1.62667 5.69335,1.62667 z"
         style="font-weight:bold;-inkscape-font-specification:'Fredoka Bold'"
         id="path838" />
      <path
         d="m 576.86109,194.55205 q -8.62135,0 -14.96536,-1.952 -6.34401,-1.95201 -10.57336,-6.01868 -4.06667,-4.06668 -6.18134,-10.24802 -1.95201,-6.18135 -1.95201,-14.47737 V 98.741184 q 0,-3.741341 0.65067,-6.832014 0.65067,-3.253341 3.74134,-5.205345 3.09067,-2.114671 10.41069,-2.114671 7.15735,0 10.24802,2.277338 3.09067,2.114672 3.74134,5.530679 0.65067,3.416007 0.65067,6.994681 v 61.000128 q 0,1.78934 0.16267,3.09067 0.32533,1.13867 0.81333,1.78934 0.488,0.65067 1.30134,0.976 0.81333,0.32534 2.11467,0.32534 4.22934,0 7.48268,0.65066 3.41601,0.65067 5.20535,3.41601 1.952,2.76534 1.952,9.27202 0,7.32002 -2.27734,10.41069 -2.27734,3.09067 -5.69334,3.57867 -3.41601,0.65067 -6.83202,0.65067 z m -37.08807,-81.65884 h 19.03204 l 22.44804,-0.81333 q 3.57868,0 6.83202,0.65067 3.416,0.65066 5.53067,3.74134 2.27734,3.09067 2.27734,10.57335 0,6.83202 -2.27734,9.92269 -2.11467,3.09067 -5.53067,3.90401 -3.25334,0.81333 -6.99468,0.81333 l -20.65871,-0.488 h -21.30938 q -5.53068,-0.32533 -7.64535,-3.57867 -2.11467,-3.25334 -2.11467,-10.73602 0,-6.99469 2.60267,-10.41069 2.60267,-3.57868 7.80802,-3.57868 z"
         style="font-weight:bold;-inkscape-font-specification:'Fredoka Bold'"
         id="path840" />
      <path
         d="m 626.63728,227.89879 q -7.97068,-3.57868 -9.27202,-7.97069 -1.30133,-4.22934 2.11468,-11.22402 l 39.52808,-88.49085 q 3.41601,-7.64535 7.32001,-9.10935 3.90401,-1.46401 12.03736,1.78933 7.80802,3.57868 9.10935,7.64535 1.46401,4.06668 -1.62667,10.89869 l -39.85341,89.30419 q -3.25334,7.64535 -7.32002,9.10935 -3.90401,1.62667 -12.03736,-1.952 z m 13.17603,-35.78674 -38.71475,-58.56013 q -4.22934,-6.50668 -3.416,-10.73602 0.81333,-4.39201 7.80801,-8.78402 7.64535,-4.71734 11.71203,-3.57867 4.22934,0.976 8.62135,7.64535 l 26.35205,39.85341 z"
         style="font-weight:bold;-inkscape-font-specification:'Fredoka Bold'"
         id="path842" />
      <path
         d="m 707.48278,194.38938 q -7.32002,0 -10.41069,-2.11467 -3.09067,-2.27733 -3.74134,-5.69334 -0.488,-3.41601 -0.488,-6.99468 v -53.51745 q 0,-3.57867 0.65067,-6.83201 0.65066,-3.25334 3.74134,-5.20535 3.09067,-2.11467 10.41069,-2.11467 6.66934,0 9.59735,1.78934 3.09067,1.62667 3.90401,4.06667 0.81333,2.44001 0.65067,4.55468 0,1.952 0.32533,2.44001 l -1.30134,0.976 q -0.16266,-2.44001 1.78934,-4.88001 2.11467,-2.44001 5.36801,-4.39201 3.41601,-2.11467 7.15735,-3.25334 3.90401,-1.30134 7.32002,-1.30134 8.13335,0 14.31469,3.09067 6.18135,3.09068 10.24802,8.78402 4.22935,5.53068 6.34402,13.01336 2.11467,7.48269 2.11467,16.2667 v 26.67739 q 0,3.57868 -0.65067,6.99468 -0.65067,3.41601 -3.74134,5.53068 -2.92801,2.11467 -10.41069,2.11467 -7.48268,0 -10.57336,-2.11467 -3.09067,-2.27733 -3.74134,-5.69334 -0.65066,-3.41601 -0.65066,-6.99468 v -26.51473 q 0,-3.74134 -1.46401,-6.34401 -1.30133,-2.60267 -3.90401,-3.90401 -2.44,-1.464 -6.18134,-1.464 -3.57868,0 -6.34402,1.464 -2.60267,1.46401 -4.06667,4.06668 -1.464,2.60267 -1.464,6.18134 v 26.67739 q 0,3.57868 -0.65067,6.99468 -0.65067,3.41601 -3.74134,5.53068 -2.92801,2.11467 -10.41069,2.11467 z"
         style="font-weight:bold;-inkscape-font-specification:'Fredoka Bold'"
         id="path844" />
      <path
         d="m 826.88039,196.34139 q -12.20003,0 -20.65871,-3.90401 -8.45869,-4.06667 -13.66403,-10.41069 -5.20535,-6.50668 -7.64535,-13.98936 -2.44001,-7.48268 -2.44001,-14.47736 0,-12.8507 5.69335,-22.61072 5.69334,-9.76002 15.7787,-15.2907 10.08535,-5.53068 23.09871,-5.53068 10.08536,0 17.24271,3.25334 7.15734,3.25334 11.54935,8.29602 4.55468,5.04268 6.66935,10.73602 2.11467,5.69335 2.11467,10.57336 0,9.27202 -4.55467,14.15203 -4.55468,4.88001 -11.71203,4.88001 h -34.64807 q 0.65067,2.60267 2.60267,4.55468 2.11467,1.78933 5.20534,2.928 3.09068,0.976 6.66935,0.976 3.57868,0 6.34402,-0.32533 2.76533,-0.488 4.71734,-1.13867 2.11467,-0.65067 3.74134,-1.30133 1.78934,-0.65067 3.09067,-0.97601 1.46401,-0.488 2.76534,-0.488 2.92801,0 5.36801,1.95201 2.44001,1.952 4.39201,5.85601 1.13867,2.11467 1.62667,4.06667 0.488,1.78934 0.488,3.41601 0,4.88001 -4.06667,8.13335 -3.90401,3.25334 -11.38669,4.88001 -7.48268,1.78934 -18.38137,1.78934 z m -13.17603,-49.61344 h 18.2187 q 2.27734,0 3.25334,-0.976 1.13867,-0.976 1.13867,-2.92801 0,-2.11467 -1.30133,-3.57867 -1.13867,-1.464 -3.25334,-2.11467 -2.11468,-0.81334 -5.04268,-0.81334 -3.90401,0 -6.83202,1.62667 -2.928,1.46401 -4.55467,3.90401 -1.464,2.27734 -1.62667,4.88001 z"
         style="font-weight:bold;-inkscape-font-specification:'Fredoka Bold'"
         id="path847" />
    </g>
  </g>
</svg>
